<svg xmlns="http://www.w3.org/2000/svg" width="1300" height="1878" viewBox="0 0 1300 1878">
<defs><marker id="arrow" viewBox="0 0 10 10" refX="9" refY="5" markerWidth="8" markerHeight="8" orient="auto-start-reverse"><path d="M 0 0 L 10 5 L 0 10 z" fill="#334155"/></marker></defs>
<rect x="0" y="0" width="100%" height="100%" fill="#ffffff"/>
<text x="120" y="40" font-family="Segoe UI, Arial" font-size="24" font-weight="700" fill="#0f172a">AutoWorkFlow DAG (Methodology-Aligned v2.1)</text>
<line x1="400.0" y1="132" x2="400.0" y2="158" stroke="#334155" stroke-width="2" marker-end="url(#arrow)"/>
<line x1="400.0" y1="210" x2="400.0" y2="236" stroke="#334155" stroke-width="2" marker-end="url(#arrow)"/>
<line x1="400.0" y1="288" x2="400.0" y2="314" stroke="#334155" stroke-width="2" marker-end="url(#arrow)"/>
<line x1="400.0" y1="366" x2="400.0" y2="392" stroke="#334155" stroke-width="2" marker-end="url(#arrow)"/>
<line x1="400.0" y1="444" x2="400.0" y2="470" stroke="#334155" stroke-width="2" marker-end="url(#arrow)"/>
<line x1="400.0" y1="522" x2="400.0" y2="548" stroke="#334155" stroke-width="2" marker-end="url(#arrow)"/>
<line x1="400.0" y1="600" x2="400.0" y2="626" stroke="#334155" stroke-width="2" marker-end="url(#arrow)"/>
<line x1="400.0" y1="678" x2="400.0" y2="704" stroke="#334155" stroke-width="2" marker-end="url(#arrow)"/>
<line x1="400.0" y1="756" x2="400.0" y2="782" stroke="#334155" stroke-width="2" marker-end="url(#arrow)"/>
<line x1="400.0" y1="834" x2="400.0" y2="860" stroke="#334155" stroke-width="2" marker-end="url(#arrow)"/>
<line x1="400.0" y1="912" x2="400.0" y2="938" stroke="#334155" stroke-width="2" marker-end="url(#arrow)"/>
<line x1="400.0" y1="990" x2="400.0" y2="1016" stroke="#334155" stroke-width="2" marker-end="url(#arrow)"/>
<line x1="400.0" y1="1068" x2="400.0" y2="1094" stroke="#334155" stroke-width="2" marker-end="url(#arrow)"/>
<line x1="400.0" y1="1146" x2="400.0" y2="1172" stroke="#334155" stroke-width="2" marker-end="url(#arrow)"/>
<line x1="400.0" y1="1224" x2="400.0" y2="1250" stroke="#334155" stroke-width="2" marker-end="url(#arrow)"/>
<line x1="400.0" y1="1302" x2="400.0" y2="1328" stroke="#334155" stroke-width="2" marker-end="url(#arrow)"/>
<line x1="400.0" y1="1380" x2="400.0" y2="1406" stroke="#334155" stroke-width="2" marker-end="url(#arrow)"/>
<line x1="400.0" y1="1458" x2="400.0" y2="1484" stroke="#334155" stroke-width="2" marker-end="url(#arrow)"/>
<line x1="400.0" y1="1536" x2="400.0" y2="1562" stroke="#334155" stroke-width="2" marker-end="url(#arrow)"/>
<line x1="400.0" y1="1614" x2="400.0" y2="1640" stroke="#334155" stroke-width="2" marker-end="url(#arrow)"/>
<path d="M 690 1588.0 L 940 1588.0 L 940 340.0 L 690 340.0" fill="none" stroke="#0ea5e9" stroke-width="2" stroke-dasharray="7 5" marker-end="url(#arrow)"/>
<text x="960" y="938.0" font-family="Segoe UI, Arial" font-size="13" fill="#0369a1">ontology_update_event (async_next_run)</text>
<rect x="120" y="80" rx="8" ry="8" width="560" height="52" fill="#E8F1FF" stroke="#334155" stroke-width="1.2"/>
<text x="132" y="112" font-family="Consolas, Menlo, monospace" font-size="14" fill="#0f172a">N01 receive_request</text>
<rect x="120" y="158" rx="8" ry="8" width="560" height="52" fill="#E8F1FF" stroke="#334155" stroke-width="1.2"/>
<text x="132" y="190" font-family="Consolas, Menlo, monospace" font-size="14" fill="#0f172a">N02 resolve_provider_policy</text>
<rect x="120" y="236" rx="8" ry="8" width="560" height="52" fill="#E8F1FF" stroke="#334155" stroke-width="1.2"/>
<text x="132" y="268" font-family="Consolas, Menlo, monospace" font-size="14" fill="#0f172a">N03 build_agent_plan</text>
<rect x="120" y="314" rx="8" ry="8" width="560" height="52" fill="#E8F1FF" stroke="#334155" stroke-width="1.2"/>
<text x="132" y="346" font-family="Consolas, Menlo, monospace" font-size="14" fill="#0f172a">N03A load_ontology_guidance</text>
<rect x="120" y="392" rx="8" ry="8" width="560" height="52" fill="#EAFBEA" stroke="#334155" stroke-width="1.2"/>
<text x="132" y="424" font-family="Consolas, Menlo, monospace" font-size="14" fill="#0f172a">N04 parse_pdf</text>
<rect x="120" y="470" rx="8" ry="8" width="560" height="52" fill="#EAFBEA" stroke="#334155" stroke-width="1.2"/>
<text x="132" y="502" font-family="Consolas, Menlo, monospace" font-size="14" fill="#0f172a">N05 chunk_text</text>
<rect x="120" y="548" rx="8" ry="8" width="560" height="52" fill="#FFF3E6" stroke="#334155" stroke-width="1.2"/>
<text x="132" y="580" font-family="Consolas, Menlo, monospace" font-size="14" fill="#0f172a">N06 extract_artifacts_by_agent</text>
<rect x="120" y="626" rx="8" ry="8" width="560" height="52" fill="#FFF3E6" stroke="#334155" stroke-width="1.2"/>
<text x="132" y="658" font-family="Consolas, Menlo, monospace" font-size="14" fill="#0f172a">N06A evidence_grounding_gate</text>
<rect x="120" y="704" rx="8" ry="8" width="560" height="52" fill="#FFF3E6" stroke="#334155" stroke-width="1.2"/>
<text x="132" y="736" font-family="Consolas, Menlo, monospace" font-size="14" fill="#0f172a">N06B enforce_ontology_schema</text>
<rect x="120" y="782" rx="8" ry="8" width="560" height="52" fill="#FFF3E6" stroke="#334155" stroke-width="1.2"/>
<text x="132" y="814" font-family="Consolas, Menlo, monospace" font-size="14" fill="#0f172a">N07 normalize_entities</text>
<rect x="120" y="860" rx="8" ry="8" width="560" height="52" fill="#FFEDED" stroke="#334155" stroke-width="1.2"/>
<text x="132" y="892" font-family="Consolas, Menlo, monospace" font-size="14" fill="#0f172a">N08 verify_access_and_liveness</text>
<rect x="120" y="938" rx="8" ry="8" width="560" height="52" fill="#FFEDED" stroke="#334155" stroke-width="1.2"/>
<text x="132" y="970" font-family="Consolas, Menlo, monospace" font-size="14" fill="#0f172a">N08A magic_byte_inspection</text>
<rect x="120" y="1016" rx="8" ry="8" width="560" height="52" fill="#FFEDED" stroke="#334155" stroke-width="1.2"/>
<text x="132" y="1048" font-family="Consolas, Menlo, monospace" font-size="14" fill="#0f172a">N08B enrich_external_value_signals</text>
<rect x="120" y="1094" rx="8" ry="8" width="560" height="52" fill="#FFEDED" stroke="#334155" stroke-width="1.2"/>
<text x="132" y="1126" font-family="Consolas, Menlo, monospace" font-size="14" fill="#0f172a">N08C classify_availability_stages</text>
<rect x="120" y="1172" rx="8" ry="8" width="560" height="52" fill="#F4EEFF" stroke="#334155" stroke-width="1.2"/>
<text x="132" y="1204" font-family="Consolas, Menlo, monospace" font-size="14" fill="#0f172a">N09 compute_scores_base</text>
<rect x="120" y="1250" rx="8" ry="8" width="560" height="52" fill="#F4EEFF" stroke="#334155" stroke-width="1.2"/>
<text x="132" y="1282" font-family="Consolas, Menlo, monospace" font-size="14" fill="#0f172a">N09A passive_mention_scoring</text>
<rect x="120" y="1328" rx="8" ry="8" width="560" height="52" fill="#F5F5F5" stroke="#334155" stroke-width="1.2"/>
<text x="132" y="1360" font-family="Consolas, Menlo, monospace" font-size="14" fill="#0f172a">N10 cross_agent_review</text>
<rect x="120" y="1406" rx="8" ry="8" width="560" height="52" fill="#E8FAFF" stroke="#334155" stroke-width="1.2"/>
<text x="132" y="1438" font-family="Consolas, Menlo, monospace" font-size="14" fill="#0f172a">N11 generate_reports</text>
<rect x="120" y="1484" rx="8" ry="8" width="560" height="52" fill="#E8FAFF" stroke="#334155" stroke-width="1.2"/>
<text x="132" y="1516" font-family="Consolas, Menlo, monospace" font-size="14" fill="#0f172a">N11A build_dashboard_payload</text>
<rect x="120" y="1562" rx="8" ry="8" width="560" height="52" fill="#EEF7F0" stroke="#334155" stroke-width="1.2"/>
<text x="132" y="1594" font-family="Consolas, Menlo, monospace" font-size="14" fill="#0f172a">N12 update_knowledge_assets</text>
<rect x="120" y="1640" rx="8" ry="8" width="560" height="52" fill="#EEF7F0" stroke="#334155" stroke-width="1.2"/>
<text x="132" y="1672" font-family="Consolas, Menlo, monospace" font-size="14" fill="#0f172a">N13 finalize</text>
<text x="760" y="70" font-family="Segoe UI, Arial" font-size="18" font-weight="600" fill="#0f172a">Module Legend</text>
<rect x="760" y="90" width="24" height="18" fill="#E8F1FF" stroke="#334155" stroke-width="1"/>
<text x="794" y="104" font-family="Segoe UI, Arial" font-size="14" fill="#0f172a">Control</text>
<rect x="760" y="118" width="24" height="18" fill="#EAFBEA" stroke="#334155" stroke-width="1"/>
<text x="794" y="132" font-family="Segoe UI, Arial" font-size="14" fill="#0f172a">Ingestion</text>
<rect x="760" y="146" width="24" height="18" fill="#FFF3E6" stroke="#334155" stroke-width="1"/>
<text x="794" y="160" font-family="Segoe UI, Arial" font-size="14" fill="#0f172a">Extraction</text>
<rect x="760" y="174" width="24" height="18" fill="#FFEDED" stroke="#334155" stroke-width="1"/>
<text x="794" y="188" font-family="Segoe UI, Arial" font-size="14" fill="#0f172a">Verification</text>
<rect x="760" y="202" width="24" height="18" fill="#F4EEFF" stroke="#334155" stroke-width="1"/>
<text x="794" y="216" font-family="Segoe UI, Arial" font-size="14" fill="#0f172a">Scoring</text>
<rect x="760" y="230" width="24" height="18" fill="#F5F5F5" stroke="#334155" stroke-width="1"/>
<text x="794" y="244" font-family="Segoe UI, Arial" font-size="14" fill="#0f172a">Review</text>
<rect x="760" y="258" width="24" height="18" fill="#E8FAFF" stroke="#334155" stroke-width="1"/>
<text x="794" y="272" font-family="Segoe UI, Arial" font-size="14" fill="#0f172a">Reporting</text>
<rect x="760" y="286" width="24" height="18" fill="#EEF7F0" stroke="#334155" stroke-width="1"/>
<text x="794" y="300" font-family="Segoe UI, Arial" font-size="14" fill="#0f172a">Knowledge</text>
</svg>